<?xml version="1.0" encoding="UTF-8" standalone="no"?>
<!-- Created with Inkscape (http://www.inkscape.org/) -->

<svg
   width="210mm"
   height="297mm"
   viewBox="0 0 210 297"
   version="1.1"
   id="svg5"
   xml:space="preserve"
   inkscape:version="1.2.2 (b0a8486541, 2022-12-01)"
   sodipodi:docname="logo.svg"
   inkscape:export-filename="logo.png"
   inkscape:export-xdpi="130.56"
   inkscape:export-ydpi="130.56"
   xmlns:inkscape="http://www.inkscape.org/namespaces/inkscape"
   xmlns:sodipodi="http://sodipodi.sourceforge.net/DTD/sodipodi-0.dtd"
   xmlns:xlink="http://www.w3.org/1999/xlink"
   xmlns="http://www.w3.org/2000/svg"
   xmlns:svg="http://www.w3.org/2000/svg"><sodipodi:namedview
     id="namedview7"
     pagecolor="#ffffff"
     bordercolor="#666666"
     borderopacity="1.0"
     inkscape:showpageshadow="2"
     inkscape:pageopacity="0.0"
     inkscape:pagecheckerboard="0"
     inkscape:deskcolor="#d1d1d1"
     inkscape:document-units="mm"
     showgrid="false"
     inkscape:zoom="0.5650456"
     inkscape:cx="403.50726"
     inkscape:cy="742.41796"
     inkscape:window-width="761"
     inkscape:window-height="1052"
     inkscape:window-x="0"
     inkscape:window-y="0"
     inkscape:window-maximized="1"
     inkscape:current-layer="layer1" /><defs
     id="defs2"><linearGradient
       inkscape:collect="always"
       id="linearGradient970"><stop
         style="stop-color:#ff7018;stop-opacity:1;"
         offset="0"
         id="stop966" /><stop
         style="stop-color:#9ee500;stop-opacity:1;"
         offset="1"
         id="stop968" /></linearGradient><linearGradient
       inkscape:collect="always"
       xlink:href="#linearGradient970"
       id="linearGradient972"
       x1="3.4519856"
       y1="158.08786"
       x2="206.54813"
       y2="158.08786"
       gradientUnits="userSpaceOnUse" /></defs><g
     inkscape:label="logo"
     inkscape:groupmode="layer"
     id="layer1"><path
       id="path872"
       style="fill:url(#linearGradient972);stroke-width:1.9;fill-opacity:1;stroke:none;stroke-opacity:1;stroke-dasharray:none;paint-order:stroke fill markers"
       d="M 26.169979 77.056795 C 22.465521 77.054927 20.351831 80.770705 22.232235 83.97937 C 23.214047 85.654705 26.409596 86.637917 28.039115 85.765824 C 28.352488 85.598112 29.755331 86.908001 36.614303 93.774121 L 44.814319 101.98344 L 50.650655 102.08938 L 56.487508 102.19531 L 65.623901 111.31775 C 70.648953 116.335 76.591779 122.3384 78.83033 124.65854 L 82.900366 128.87689 L 82.965479 131.97747 L 83.030591 135.07806 L 82.028585 135.60361 C 79.099792 137.13981 78.957772 141.85434 81.789323 143.55144 L 81.789323 143.55196 C 83.082659 144.32647 85.430931 144.32982 86.747677 143.55816 C 89.688505 141.83472 89.453792 137.09194 86.347701 135.47649 L 85.764274 135.17314 L 85.764274 131.21938 L 85.764274 127.2651 L 73.321106 114.73046 C 66.477467 107.83628 60.236248 101.55095 59.451152 100.76336 L 58.023332 99.331405 L 52.641748 99.310217 C 49.681762 99.298588 47.021146 99.222812 46.729447 99.141752 C 46.436478 99.060338 42.685536 95.532721 38.349597 91.260579 L 30.500464 83.526685 L 30.573844 81.805859 C 30.708088 78.66707 29.216575 77.058295 26.169979 77.056795 z M 183.83012 77.056795 C 180.78353 77.058295 179.29202 78.66707 179.42626 81.805859 L 179.49964 83.526685 L 171.64999 91.260579 C 167.31404 95.532721 163.56361 99.060338 163.27065 99.141752 C 162.97895 99.222812 160.31835 99.298588 157.35835 99.310217 L 151.97625 99.331405 L 150.54895 100.76336 C 149.76386 101.55095 143.52211 107.83628 136.67848 114.73046 L 124.23583 127.2651 L 124.23583 131.21938 L 124.23583 135.17314 L 123.6524 135.47649 C 120.54631 137.09194 120.3116 141.83472 123.25243 143.55816 C 124.56917 144.32982 126.91693 144.32647 128.21026 143.55196 L 128.21026 143.55144 C 131.04181 141.85434 130.9003 137.13981 127.97152 135.60361 L 126.96951 135.07806 L 127.03462 131.97747 L 127.09974 128.87689 L 131.16977 124.65854 C 133.40832 122.3384 139.35115 116.335 144.3762 111.31775 L 153.51259 102.19531 L 159.34893 102.08938 L 165.18527 101.98344 L 173.3858 93.774121 C 180.24477 86.908001 181.64761 85.598112 181.96099 85.765824 C 183.59049 86.637917 186.78605 85.654705 187.76787 83.97937 C 189.64827 80.770705 187.53458 77.054927 183.83012 77.056795 z M 44.414343 79.390503 C 41.475895 79.389021 39.940715 80.917845 39.940715 83.845011 C 39.940715 86.949908 41.535932 88.395991 44.81897 88.267997 L 46.723246 88.193583 L 49.698775 91.163944 L 52.673787 94.133789 L 55.61366 94.239726 L 58.553532 94.346179 L 64.256543 99.901396 C 67.393115 102.95676 75.21017 110.71344 81.627576 117.13859 L 93.295597 128.82056 L 93.401534 137.52597 C 93.42591 139.52661 93.448963 141.02424 93.473881 142.23421 L 93.304899 142.23421 C 92.7509 142.23421 92.30496 142.68015 92.30496 143.23415 L 92.30496 148.52633 L 86.598332 148.52633 C 86.044332 148.52633 85.598393 148.97227 85.598393 149.52627 L 85.598393 149.62653 C 84.605738 149.61412 83.49345 149.60999 81.881824 149.60999 L 75.060018 149.60999 L 69.592651 144.14262 L 64.125285 138.67526 L 64.125285 134.65018 L 64.125285 130.6251 L 40.523108 107.02292 L 16.920931 83.420748 L 14.646651 83.420748 C 12.380856 83.420748 12.371868 83.418602 12.069548 82.837321 C 9.8146406 78.501739 3.4519857 80.028603 3.4519857 84.905412 C 3.4519857 89.660151 9.7679008 91.328104 11.942424 87.147652 L 12.467973 86.137895 L 13.926282 86.23763 L 15.385107 86.337882 L 38.323242 109.2755 L 61.261377 132.21312 L 61.367314 136.35447 L 61.473767 140.4953 L 67.421208 146.43189 L 73.369165 152.36796 L 81.036914 152.36796 C 83.022004 152.36796 84.450224 152.36699 85.602527 152.35142 C 85.647621 152.86307 86.074583 153.26145 86.598332 153.26145 L 93.94517 153.26145 C 94.49917 153.26145 94.945109 152.81551 94.945109 152.26151 L 94.945109 151.58041 L 96.040133 151.58041 C 96.594132 151.58041 97.040072 151.13447 97.040072 150.58047 L 97.040072 143.23415 C 97.040072 142.71303 96.645751 142.28753 96.137801 142.23886 C 96.15176 140.86321 96.159505 139.1612 96.159505 136.62319 L 96.159505 127.27337 L 94.303288 125.42749 C 93.282342 124.41226 85.183433 116.35931 76.305937 107.53194 L 60.16532 91.482271 L 57.34172 91.482271 L 54.518119 91.482271 L 51.631474 88.671073 L 48.744828 85.860392 L 48.818726 84.13905 C 48.952968 81.00026 47.460939 79.392003 44.414343 79.390503 z M 165.58524 79.390503 C 162.53864 79.392003 161.04713 81.00026 161.18138 84.13905 L 161.25527 85.860392 L 158.36863 88.671073 L 155.48198 91.482271 L 152.65838 91.482271 L 149.83478 91.482271 L 133.69417 107.53194 C 124.81666 116.35931 116.71776 124.41226 115.69681 125.42749 L 113.8406 127.27337 L 113.8406 136.62319 C 113.8406 139.15788 113.84838 140.85907 113.8623 142.23421 L 113.81321 142.23421 C 113.25921 142.23421 112.81327 142.68015 112.81327 143.23415 L 112.81327 150.58047 C 112.81327 151.13447 113.25921 151.58041 113.81321 151.58041 L 114.90823 151.58041 L 114.90823 152.26151 C 114.90823 152.81551 115.35417 153.26145 115.90817 153.26145 L 123.25449 153.26145 C 123.77842 153.26145 124.20596 152.8628 124.25081 152.35091 C 125.41638 152.36813 126.91429 152.36796 128.96319 152.36796 L 136.63094 152.36796 L 142.57838 146.43189 L 148.52633 140.4953 L 148.63227 136.35447 L 148.73872 132.21312 L 171.67686 109.2755 L 194.61499 86.337882 L 196.07382 86.23763 L 197.53213 86.137895 L 198.05768 87.147652 C 200.2322 91.328104 206.54812 89.660151 206.54812 84.905412 C 206.54812 80.028603 200.18545 78.501739 197.93055 82.837321 C 197.62823 83.418602 197.61873 83.420748 195.35293 83.420748 L 193.07917 83.420748 L 169.47699 107.02292 L 145.8743 130.6251 L 145.8743 134.65018 L 145.8743 138.67526 L 140.40745 144.14262 L 134.94008 149.60999 L 128.11776 149.60999 C 126.44252 149.60999 125.26457 149.61357 124.25495 149.62756 L 124.25495 149.52627 C 124.25495 148.97227 123.80849 148.52633 123.25449 148.52633 L 117.54838 148.52633 L 117.54838 143.23415 C 117.54838 142.68015 117.10244 142.23421 116.54844 142.23421 L 116.5257 142.23421 C 116.55062 141.02424 116.57419 139.52661 116.59857 137.52597 L 116.7045 128.82056 L 128.37253 117.13859 C 134.78993 110.71344 142.60699 102.95676 145.74356 99.901396 L 151.44605 94.346179 L 154.38644 94.239726 L 157.32631 94.133789 L 160.30133 91.163944 L 163.27634 88.193583 L 165.18113 88.267997 C 168.46417 88.395991 170.05939 86.949908 170.05939 83.845011 C 170.05939 80.917845 168.52369 79.389021 165.58524 79.390503 z M 14.926221 92.967969 C 11.987774 92.966486 10.452592 94.494794 10.452592 97.42196 C 10.452592 100.5373 12.06617 101.99392 15.344283 101.83719 L 17.248043 101.74624 L 29.830737 114.38113 L 42.413432 127.01654 L 42.318347 128.96991 C 42.204404 131.31302 42.699003 132.44518 44.239677 133.3686 C 47.420897 135.27528 51.185856 133.14409 51.183956 129.43758 C 51.18241 126.37139 49.579167 124.90106 46.382182 125.03371 C 45.406464 125.0742 44.584053 125.04125 44.554903 124.96085 C 44.525752 124.88049 38.821656 119.10476 31.879191 112.12597 L 19.256706 99.437341 L 19.325435 97.706698 C 19.450043 94.561976 17.971328 92.969469 14.926221 92.967969 z M 195.07388 92.967969 C 192.02877 92.969469 190.55006 94.561976 190.67467 97.706698 L 190.7434 99.437341 L 178.12091 112.12597 C 171.17845 119.10476 165.47434 124.88049 165.4452 124.96085 C 165.416 125.04125 164.59365 125.0742 163.61792 125.03371 C 160.42094 124.90106 158.81769 126.37139 158.81615 129.43758 C 158.81415 133.14409 162.57921 135.27528 165.76042 133.3686 C 167.3011 132.44518 167.7957 131.31302 167.68175 128.96991 L 167.58667 127.01654 L 180.16936 114.38113 L 192.75206 101.74624 L 194.6553 101.83719 C 197.93341 101.99392 199.54751 100.5373 199.54751 97.42196 C 199.54751 94.494794 198.01233 92.966486 195.07388 92.967969 z M 79.842672 97.634867 C 76.904224 97.633383 75.369043 99.162211 75.369043 102.08938 C 75.369043 105.19916 76.984034 106.66112 80.246781 106.50513 L 82.136072 106.41469 L 91.110201 115.39037 L 100.08433 124.36605 L 100.19027 135.29872 C 100.22162 138.53037 100.25157 140.59385 100.28535 142.23421 L 100.14117 142.23421 C 99.587175 142.23421 99.141235 142.68015 99.141235 143.23415 L 99.141235 150.58047 C 99.141235 151.13447 99.587175 151.58041 100.14117 151.58041 L 102.87641 151.58041 C 103.43041 151.58041 103.87635 151.13447 103.87635 150.58047 L 103.87635 143.23415 C 103.87635 142.69331 103.45133 142.25574 102.91568 142.23525 C 102.9373 140.47624 102.94824 138.17456 102.94824 134.37578 L 102.94824 122.77907 L 93.560697 113.39256 L 84.173157 104.00605 L 84.241886 102.3245 C 84.367949 99.233852 82.86926 97.636367 79.842672 97.634867 z M 130.15691 97.634867 C 127.13033 97.636367 125.63216 99.233852 125.75822 102.3245 L 125.82694 104.00605 L 116.4394 113.39256 L 107.05186 122.77907 L 107.05186 134.37578 C 107.05186 138.17381 107.06282 140.47523 107.08442 142.23421 L 106.97693 142.23421 C 106.42293 142.23421 105.97699 142.68015 105.97699 143.23415 L 105.97699 150.58047 C 105.97699 151.13447 106.42293 151.58041 106.97693 151.58041 L 109.71217 151.58041 C 110.26617 151.58041 110.71211 151.13447 110.71211 150.58047 L 110.71211 143.23415 C 110.71211 142.68102 110.26755 142.2356 109.71475 142.23421 C 109.74853 140.59385 109.77848 138.53037 109.80983 135.29872 L 109.91577 124.36605 L 118.8899 115.39037 L 127.86403 106.41469 L 129.75332 106.50513 C 133.01608 106.66112 134.63106 105.19916 134.63106 102.08938 C 134.63106 99.162211 133.09536 97.633383 130.15691 97.634867 z M 53.536784 105.48452 C 50.598336 105.48303 49.063155 107.01134 49.063155 109.93851 C 49.063155 113.04834 50.678018 114.51026 53.940894 114.35426 L 55.830184 114.26434 L 63.705672 122.14138 C 72.773989 131.21211 72.754191 131.18401 70.789994 132.20898 C 67.856199 133.73992 67.711 138.45842 70.545565 140.15734 L 70.545565 140.15785 C 71.838899 140.93236 74.187174 140.93571 75.503918 140.16405 C 78.444748 138.44062 78.210035 133.69784 75.103943 132.08238 C 74.544182 131.79126 74.520516 131.71235 74.520516 130.14296 L 74.520516 128.5074 L 66.193892 120.18181 L 57.867269 111.85622 L 57.935482 110.17415 C 58.061535 107.08314 56.563499 105.48552 53.536784 105.48452 z M 156.46332 105.48452 C 153.4366 105.48552 151.93805 107.08314 152.0641 110.17415 L 152.13283 111.85622 L 143.80621 120.18181 L 135.47959 128.5074 L 135.47959 130.14296 C 135.47959 131.71235 135.45596 131.79126 134.89616 132.08238 C 131.79007 133.69784 131.55535 138.44062 134.49618 140.16405 C 135.81292 140.93571 138.16068 140.93236 139.45402 140.15785 L 139.45402 140.15734 C 142.28859 138.45842 142.1439 133.73992 139.21011 132.20898 C 137.24591 131.18401 137.22611 131.21211 146.29443 122.14138 L 154.16992 114.26434 L 156.05921 114.35426 C 159.32208 114.51026 160.93695 113.04834 160.93695 109.93851 C 160.93695 107.01134 159.40176 105.48303 156.46332 105.48452 z M 14.86731 107.67353 C 12.650431 107.72612 10.452592 109.27613 10.452592 112.27222 C 10.452592 115.7655 14.003734 117.97377 17.070793 116.38773 L 17.7276 116.04821 L 30.107206 128.42679 L 42.486812 140.80588 L 47.151127 140.91181 L 51.815442 141.01827 L 60.893441 150.08748 L 69.970923 159.15669 L 79.337276 159.15669 C 82.160731 159.15669 84.140414 159.15749 85.599426 159.13396 C 85.618353 159.67106 86.05645 160.09772 86.598332 160.09772 L 93.94517 160.09772 C 94.49917 160.09772 94.945109 159.65178 94.945109 159.09778 L 94.945109 156.36255 C 94.945109 155.80855 94.49917 155.36261 93.94517 155.36261 L 86.598332 155.36261 C 86.044332 155.36261 85.598393 155.80855 85.598393 156.36255 L 85.598393 156.41474 C 84.29516 156.3963 82.544282 156.39872 80.18632 156.39872 L 71.667977 156.39872 L 62.590495 147.32951 L 53.513013 138.26029 L 48.849731 138.15436 L 44.186967 138.0479 L 31.808911 125.74375 L 19.431372 113.43907 L 19.396232 112.06034 C 19.320203 109.06607 17.084188 107.62094 14.86731 107.67353 z M 195.13279 107.67353 C 192.91591 107.62094 190.6799 109.06607 190.60387 112.06034 L 190.56873 113.43907 L 178.19119 125.74375 L 165.81313 138.0479 L 161.14985 138.15436 L 156.48709 138.26029 L 147.40961 147.32951 L 138.33212 156.39872 L 129.81378 156.39872 C 127.35191 156.39872 125.57453 156.39766 124.25495 156.41888 L 124.25495 156.36255 C 124.25495 155.80855 123.80849 155.36261 123.25449 155.36261 L 115.90817 155.36261 C 115.35417 155.36261 114.90823 155.80855 114.90823 156.36255 L 114.90823 159.09778 C 114.90823 159.65178 115.35417 160.09772 115.90817 160.09772 L 123.25449 160.09772 C 123.79758 160.09772 124.23683 159.66913 124.25391 159.13034 C 125.7236 159.15692 127.73242 159.15669 130.66231 159.15669 L 140.02918 159.15669 L 149.10666 150.08748 L 158.18466 141.01827 L 162.84897 140.91181 L 167.51329 140.80588 L 179.8929 128.42679 L 192.2725 116.04821 L 192.92931 116.38773 C 195.99637 117.97377 199.54751 115.7655 199.54751 112.27222 C 199.54751 109.27613 197.34967 107.72612 195.13279 107.67353 z M 24.048661 127.12351 C 21.110214 127.12203 19.575033 128.65034 19.575033 131.5775 C 19.575033 134.69705 21.187783 136.14951 24.477576 135.99222 L 26.391671 135.90075 L 32.832621 142.4373 L 39.273572 148.97334 L 43.538428 148.97334 C 48.661123 148.97334 48.551638 148.93759 50.972599 151.39541 L 52.77559 153.22631 L 52.701176 155.12903 C 52.611898 157.41675 53.119829 158.55455 54.634908 159.46262 C 57.816127 161.3693 61.58057 159.23811 61.57867 155.53159 C 61.577121 152.45895 59.975702 150.99508 56.759326 151.12721 L 54.967704 151.20111 L 52.553381 148.76146 L 50.139058 146.32182 L 45.468026 146.21588 L 40.796476 146.10943 L 34.587553 139.95735 L 28.379146 133.80527 L 28.456144 131.98523 C 28.59413 128.73438 27.135195 127.12551 24.048661 127.12351 z M 185.95144 127.12351 C 182.8649 127.12551 181.40598 128.73438 181.54396 131.98523 L 181.62096 133.80527 L 175.41203 139.95735 L 169.20311 146.10943 L 164.53208 146.21588 L 159.86053 146.32182 L 157.44672 148.76146 L 155.0324 151.20111 L 153.24078 151.12721 C 150.0244 150.99508 148.42246 152.45895 148.42091 155.53159 C 148.41891 159.23811 152.18397 161.3693 155.36519 159.46262 C 156.88027 158.55455 157.38768 157.41675 157.29841 155.12903 L 157.22451 153.22631 L 159.0275 151.39541 C 161.44846 148.93759 161.33846 148.97334 166.46116 148.97334 L 170.72653 148.97334 L 177.16748 142.4373 L 183.60843 135.90075 L 185.52253 135.99222 C 188.81232 136.14951 190.42507 134.69705 190.42507 131.5775 C 190.42507 128.65034 188.88989 127.12203 185.95144 127.12351 z M 69.659831 161.49092 C 66.55257 161.48935 65.076196 163.09484 65.21359 166.32576 L 65.292139 168.17268 L 59.426347 173.9005 C 56.200185 177.05085 52.787465 180.46758 51.842314 181.4928 L 50.124072 183.35677 L 50.124072 192.84301 L 50.124072 202.32874 L 49.133952 202.85428 C 46.216804 204.40182 46.082518 209.10867 48.907092 210.8016 L 48.907092 210.80264 C 50.200428 211.57716 52.548184 211.57998 53.864929 210.80832 C 56.809371 209.08276 56.570899 204.34231 53.458236 202.72354 L 52.868608 202.41659 L 52.928035 193.51945 L 52.98798 184.62181 L 60.257304 177.34163 C 65.116756 172.47476 67.613065 170.11615 67.78811 170.22734 C 69.191571 171.11878 72.60322 170.04674 73.560368 168.41349 C 75.43718 165.21096 73.342076 161.49292 69.659831 161.49092 z M 140.34027 161.49092 C 136.65801 161.49292 134.56293 165.21096 136.43973 168.41349 C 137.39689 170.04674 140.80853 171.11878 142.21199 170.22734 C 142.38704 170.11615 144.88335 172.47476 149.7428 177.34163 L 157.01212 184.62181 L 157.07207 193.51945 L 157.13149 202.41659 L 156.54135 202.72354 C 153.42868 204.34231 153.19021 209.08276 156.13466 210.80832 C 157.4514 211.57998 159.79968 211.57716 161.09301 210.80264 L 161.09301 210.8016 C 163.91759 209.10867 163.7833 204.40182 160.86615 202.85428 L 159.87603 202.32874 L 159.87603 192.84301 L 159.87603 183.35677 L 158.15779 181.4928 C 157.21263 180.46758 153.7994 177.05085 150.57324 173.9005 L 144.70796 168.17268 L 144.78651 166.32576 C 144.9239 163.09484 143.44753 161.48935 140.34027 161.49092 z M 86.598332 162.19837 C 86.044332 162.19837 85.598393 162.64431 85.598393 163.19831 L 85.598393 165.93354 C 85.598393 166.48754 86.044332 166.93348 86.598332 166.93348 L 93.94517 166.93348 C 94.49917 166.93348 94.945109 166.48754 94.945109 165.93354 L 94.945109 163.19831 C 94.945109 162.64431 94.49917 162.19837 93.94517 162.19837 L 86.598332 162.19837 z M 115.90817 162.19837 C 115.35417 162.19837 114.90823 162.64431 114.90823 163.19831 L 114.90823 165.93354 C 114.90823 166.48754 115.35417 166.93348 115.90817 166.93348 L 123.25449 166.93348 C 123.80849 166.93348 124.25495 166.48754 124.25495 165.93354 L 124.25495 163.19831 C 124.25495 162.64431 123.80849 162.19837 123.25449 162.19837 L 115.90817 162.19837 z M 49.081759 168.27965 C 45.990526 168.27809 44.508193 169.87585 44.639653 173.06747 L 44.714067 174.88132 L 42.857849 176.73753 L 41.001632 178.59375 L 41.001632 184.73343 L 41.001632 190.8731 L 40.011511 191.39814 C 37.094363 192.94568 36.960078 197.65305 39.784652 199.34597 L 39.784652 199.34649 C 41.077986 200.121 43.42626 200.12435 44.743005 199.35269 C 47.689334 197.62602 47.448788 192.88634 44.332694 191.26584 L 43.738932 190.95682 L 43.802494 185.57369 L 43.86554 180.19003 L 45.35072 178.63664 L 46.835384 177.08273 L 48.682817 177.16128 C 51.913742 177.29867 53.518647 175.8223 53.517147 172.71504 C 53.515675 169.79628 52.000513 168.28165 49.081759 168.27965 z M 160.91834 168.27965 C 157.99959 168.28165 156.48391 169.79628 156.48244 172.71504 C 156.48044 175.8223 158.08636 177.29867 161.31729 177.16128 L 163.1642 177.08273 L 164.64938 178.63664 L 166.13456 180.19003 L 166.19761 185.57369 L 166.26065 190.95682 L 165.66741 191.26584 C 162.55131 192.88634 162.31077 197.62602 165.2571 199.35269 C 166.57384 200.12435 168.92211 200.121 170.21545 199.34649 L 170.21545 199.34597 C 173.04003 197.65305 172.90523 192.94568 169.98807 191.39814 L 168.99847 190.8731 L 168.99847 184.73343 L 168.99847 178.59375 L 167.14225 176.73753 L 165.28604 174.88132 L 165.36045 173.06747 C 165.49191 169.87585 164.00958 168.27809 160.91834 168.27965 z M 86.598332 169.03464 C 86.058699 169.03464 85.621737 169.45774 85.599426 169.99169 C 84.92106 169.98513 84.329385 169.97619 83.367521 169.97619 L 78.030896 169.97619 L 68.691414 179.30844 L 59.351933 188.64068 L 59.245996 209.83525 L 59.140059 231.02983 L 58.079142 232.16619 L 57.018742 233.30307 L 55.171309 233.22401 C 53.479948 233.15138 53.243661 233.19199 52.366313 233.70615 C 49.592971 235.33144 49.554882 239.91701 52.3012 241.56303 C 55.641647 243.56515 59.377148 241.26239 59.214473 237.30128 L 59.139026 235.47193 L 60.518787 234.13248 L 61.898031 232.79354 L 62.003967 211.56538 L 62.109904 190.33774 L 70.919185 181.53569 L 79.728984 172.73364 L 84.216565 172.73364 C 84.737751 172.73364 85.177186 172.73238 85.598393 172.73003 L 85.598393 172.76982 C 85.598393 173.32382 86.044332 173.76976 86.598332 173.76976 L 92.30496 173.76976 L 92.30496 179.06194 C 92.30496 179.61594 92.7509 180.06188 93.304899 180.06188 L 93.406185 180.06188 C 93.403796 180.34439 93.401534 180.62322 93.401534 180.96001 L 93.401534 184.27609 L 85.976664 191.72111 L 78.551278 199.16562 L 78.551278 204.7782 L 78.551278 210.39026 L 77.561674 210.91581 C 74.644526 212.46334 74.509723 217.17021 77.334298 218.86313 L 77.334298 218.86416 C 78.627632 219.63867 80.975906 219.64151 82.292651 218.86984 C 85.239448 217.14291 84.998771 212.40341 81.881824 210.78248 L 81.287028 210.47346 L 81.351107 205.60916 L 81.415186 200.74434 L 88.787345 193.36184 L 96.159505 185.97883 L 96.159505 181.81112 C 96.159505 181.12451 96.156012 180.56137 96.149687 180.05568 C 96.651882 180.00155 97.040072 179.57898 97.040072 179.06194 L 97.040072 171.71562 C 97.040072 171.16162 96.594132 170.71568 96.040133 170.71568 L 94.945109 170.71568 L 94.945109 170.03458 C 94.945109 169.48058 94.49917 169.03464 93.94517 169.03464 L 86.598332 169.03464 z M 115.90817 169.03464 C 115.35417 169.03464 114.90823 169.48058 114.90823 170.03458 L 114.90823 170.71568 L 113.81321 170.71568 C 113.25921 170.71568 112.81327 171.16162 112.81327 171.71562 L 112.81327 179.06194 C 112.81327 179.61594 113.25921 180.06188 113.81321 180.06188 L 113.84938 180.06188 C 113.84313 180.56605 113.8406 181.12758 113.8406 181.81112 L 113.8406 185.97883 L 121.21276 193.36184 L 128.58492 200.74434 L 128.64848 205.60916 L 128.71256 210.47346 L 128.11828 210.78248 C 125.00134 212.40341 124.76065 217.14291 127.70745 218.86984 C 129.02419 219.64151 131.37195 219.63867 132.66529 218.86416 L 132.6658 218.86313 C 135.49037 217.17021 135.35557 212.46334 132.43843 210.91581 L 131.44882 210.39026 L 131.44882 204.7782 L 131.44882 199.16562 L 124.02344 191.72111 L 116.59857 184.27609 L 116.59857 180.96001 C 116.59857 180.62284 116.59631 180.34363 116.59392 180.06084 C 117.12644 180.03701 117.54838 179.60055 117.54838 179.06194 L 117.54838 173.76976 L 123.25449 173.76976 C 123.80849 173.76976 124.25495 173.32382 124.25495 172.76982 L 124.25495 172.73003 C 124.70983 172.73309 125.207 172.73364 125.78354 172.73364 L 130.27112 172.73364 L 139.0804 181.53569 L 147.88968 190.33774 L 147.99613 211.56538 L 148.10207 232.79354 L 149.48132 234.13248 L 150.86056 235.47193 L 150.78563 237.30128 C 150.62296 241.26239 154.35845 243.56515 157.6989 241.56303 C 160.44523 239.91701 160.40714 235.33144 157.63379 233.70615 C 156.75645 233.19199 156.52016 233.15138 154.82879 233.22401 L 152.98136 233.30307 L 151.92044 232.16619 L 150.86004 231.02983 L 150.75411 209.83525 L 150.64765 188.64068 L 141.30817 179.30844 L 131.96921 169.97619 L 126.63258 169.97619 C 125.60747 169.97619 124.95886 169.98485 124.25391 169.99272 C 124.23212 169.45829 123.79447 169.03464 123.25449 169.03464 L 115.90817 169.03464 z M 100.14117 170.71568 C 99.587175 170.71568 99.141235 171.16162 99.141235 171.71562 L 99.141235 179.06194 C 99.141235 179.61594 99.587175 180.06188 100.14117 180.06188 L 100.2099 180.06188 C 100.18943 181.10017 100.19027 182.486 100.19027 184.3412 L 100.19027 191.03899 L 97.379069 193.92563 L 94.568388 196.81228 L 92.721472 196.73373 C 91.03082 196.66183 90.792942 196.70295 89.915959 197.2169 C 87.142617 198.84218 87.104528 203.42777 89.850846 205.07379 C 93.181817 207.07024 96.927372 204.77268 96.764636 200.8327 L 96.689705 199.02454 L 99.81923 195.89502 L 102.94824 192.76601 L 102.94824 185.20472 C 102.94824 182.87879 102.94687 181.2579 102.91982 180.06084 C 103.45352 180.03827 103.87635 179.60139 103.87635 179.06194 L 103.87635 171.71562 C 103.87635 171.16162 103.43041 170.71568 102.87641 170.71568 L 100.14117 170.71568 z M 106.97693 170.71568 C 106.42293 170.71568 105.97699 171.16162 105.97699 171.71562 L 105.97699 179.06194 C 105.97699 179.61594 106.42293 180.06188 106.97693 180.06188 L 107.07977 180.06188 C 107.05274 181.25885 107.05186 182.87953 107.05186 185.20472 L 107.05186 192.76601 L 110.18087 195.89502 L 113.3104 199.02454 L 113.23547 200.8327 C 113.07273 204.77252 116.81788 207.06981 120.14874 205.07379 C 122.89507 203.42777 122.85749 198.84218 120.08414 197.2169 C 119.20715 196.70295 118.96928 196.66183 117.27863 196.73373 L 115.43171 196.81228 L 112.62052 193.92563 L 109.80983 191.03899 L 109.80983 184.3412 C 109.80983 182.48466 109.81072 181.09731 109.7902 180.05878 C 110.3075 180.01927 110.71211 179.58971 110.71211 179.06194 L 110.71211 171.71562 C 110.71211 171.16162 110.26617 170.71568 109.71217 170.71568 L 106.97693 170.71568 z M 82.176379 178.46249 C 79.088022 178.46094 77.602605 180.05986 77.734273 183.24308 L 77.808687 185.04917 L 73.088562 189.7693 L 68.368437 194.48942 L 68.368437 218.35101 L 68.368437 242.21261 L 67.378316 242.73764 C 64.461168 244.28518 64.326883 248.99204 67.151457 250.68496 L 67.151457 250.68599 C 68.444792 251.46051 70.793066 251.46334 72.10981 250.69167 C 75.052145 248.96736 74.815563 244.2258 71.706734 242.60896 L 71.120723 242.30407 L 71.176534 219.19231 L 71.232345 196.08105 L 75.581433 191.67357 L 79.930522 187.26557 L 81.777437 187.34464 C 85.008361 187.48203 86.613784 186.00565 86.612284 182.8984 C 86.610812 179.97965 85.095133 178.46449 82.176379 178.46249 z M 127.82372 178.46249 C 124.90498 178.46449 123.3893 179.97965 123.38782 182.8984 C 123.38582 186.00565 124.99175 187.48203 128.22266 187.34464 L 130.06958 187.26557 L 134.41867 191.67357 L 138.76776 196.08105 L 138.82357 219.19231 L 138.87938 242.30407 L 138.29285 242.60896 C 135.18402 244.2258 134.94794 248.96736 137.89029 250.69167 C 139.20703 251.46334 141.55531 251.46051 142.84865 250.68599 L 142.84865 250.68496 C 145.67323 248.99204 145.53841 244.28518 142.62127 242.73764 L 141.63167 242.21261 L 141.63167 218.35101 L 141.63167 194.48942 L 136.91154 189.7693 L 132.1909 185.04917 L 132.26583 183.24308 C 132.3975 180.05986 130.91208 178.46094 127.82372 178.46249 z "
       inkscape:label="circuit" /><g
       id="g3986"
       inkscape:label="chip"><rect
         style="display:inline;fill:#4d4d4d;fill-opacity:1;stroke-width:3;stroke-linecap:round;stroke-linejoin:round;stroke-dasharray:none;paint-order:markers stroke fill"
         id="rect6688"
         width="29.309801"
         height="28.481514"
         x="90.271751"
         y="146.9073"
         rx="3"
         ry="3"
         inkscape:label="base" /><rect
         style="display:inline;fill:#666666;fill-opacity:1;stroke-width:3;stroke-linecap:round;stroke-linejoin:round;stroke-dasharray:none;paint-order:markers stroke fill"
         id="rect7416"
         width="18.26544"
         height="17.231926"
         x="95.79393"
         y="152.5321"
         rx="1"
         ry="1"
         inkscape:label="top" /></g></g></svg>
